<svg xmlns="http://www.w3.org/2000/svg" width="278.457" height="42.426" viewBox="0 0 278.457 42.426">
  <g id="Grupo_2" data-name="Grupo 2" transform="translate(-162.793 -118.293)">
    <path id="Trazado_1" data-name="Trazado 1" d="M18.05,41.25q7.05,0,11.325-3.825T33.65,25.9q0-7.7-4.825-12.25A16.718,16.718,0,0,0,16.9,9.1q-4.55,0-7.9.25v31.5A78.611,78.611,0,0,0,18.05,41.25ZM16.9,6.9a19.569,19.569,0,0,1,13.8,5.125q5.55,5.125,5.55,13.925a20.361,20.361,0,0,1-1.425,7.875A13.74,13.74,0,0,1,30.9,39.3a19.822,19.822,0,0,1-12.85,4.15Q13,43.45,6.6,42.9V7.25Q11.7,6.9,16.9,6.9ZM46.75,43V10.55h2.3V43Zm14.3,0V10.35h1.1l21.3,24.5q1.15,1.3,2.125,2.575T86.6,38.75q-.1-1.2-.1-4.7V10.55h2.3V43.2H87.7L66,18.3l-2.75-3.35q.1,1,.1,4.7V43ZM102.4,31.75,97.75,43H95.4L109,10.35h1.35L124.05,43H121.5l-4.7-11.25Zm7.15-17.7q-.75,2.25-1.35,3.75l-5,12H116l-4.95-11.95Q109.9,15.05,109.55,14.05ZM145.7,41.3h-1.35L134.9,18.35q-.6-1.35-1.2-3.15,0,.05-.075.55t-.175,1.325q-.1.825-.2,1.375L129.5,43h-2.25l5.3-32.65h1.35L144,34.3q1.2,3,1.2,3.15a28.211,28.211,0,0,1,1.35-3.1l11.25-24h1.35L164.1,43h-2.4l-3.55-24.65a29.157,29.157,0,0,1-.35-3.25l-1.45,3.3Zm27,1.7V10.55H175V43Zm39.55-1.6q-3.75,2.1-10.425,2.1a16.584,16.584,0,0,1-11.75-4.8A15.747,15.747,0,0,1,185,26.775a16.928,16.928,0,0,1,4.425-11.925,14.832,14.832,0,0,1,11.425-4.8A35.627,35.627,0,0,1,211.9,11.8l-.6,1.9a36.346,36.346,0,0,0-10.75-1.6,12.012,12.012,0,0,0-9.325,4.225,14.976,14.976,0,0,0-3.775,10.35A14.075,14.075,0,0,0,191.825,37.1a14.016,14.016,0,0,0,10.125,4.3,24.732,24.732,0,0,0,9.55-1.6Z" transform="translate(229 114.1)" fill="#00061e"/>
    <g id="Grupo_1" data-name="Grupo 1" transform="translate(27 0.5)">
      <line id="Línea_1" data-name="Línea 1" x2="33" y2="33" transform="translate(147.5 118.5)" fill="none" stroke="#00061e" stroke-width="2"/>
      <line id="Línea_4" data-name="Línea 4" x2="20" y2="20" transform="translate(154.5 139.5)" fill="none" stroke="#00061e" stroke-width="2"/>
      <line id="Línea_3" data-name="Línea 3" x1="30" y2="29" transform="translate(147.5 130.5)" fill="none" stroke="#00061e" stroke-width="2"/>
      <line id="Línea_2" data-name="Línea 2" x1="23" y2="23" transform="translate(136.5 118.5)" fill="none" stroke="#00061e" stroke-width="2"/>
    </g>
  </g>
</svg>
